<svg width="200" height="47" viewBox="0 0 200 47" fill="none" xmlns="http://www.w3.org/2000/svg">
<path d="M37.4543 3.91481V31.0574H11.7141V3.91481H37.4543ZM41.1669 0H8V34.9738H41.1669V0Z" fill="#D8A401"/>
<path d="M71.136 8.52323C71.2543 8.50161 71.3694 8.5066 71.4877 8.51492C71.6186 8.52489 71.7495 8.51991 71.882 8.52323C72.1533 8.53155 72.4245 8.54485 72.6958 8.5698C73.1232 8.60638 73.5506 8.66459 73.9717 8.75107C74.3928 8.83755 74.7981 8.94897 75.1971 9.10031C75.5961 9.25165 75.9794 9.43624 76.3437 9.66242C76.7175 9.89524 77.0676 10.1696 77.3862 10.4823C77.4761 10.5704 77.5628 10.6602 77.6464 10.7534C78.0596 11.2124 78.405 11.7412 78.651 12.3183C79.3465 13.9547 79.2251 15.9205 78.446 17.5153C77.6669 19.1085 76.2727 20.3292 74.6861 20.9761C73.1011 21.6247 71.3379 21.7212 69.6646 21.3952C69.3602 21.3353 68.9233 21.3553 68.8855 21.6796C68.8697 21.8159 68.9454 21.944 69.0243 22.0554C70.1882 23.7268 72.3883 24.407 74.2997 23.9214C76.2112 23.4358 77.7994 21.9141 78.6952 20.0681C78.8671 20.6285 78.7456 21.2389 78.569 21.7977C77.6432 24.7113 75.1072 26.9697 72.2369 27.5052C69.3665 28.0407 66.2769 26.8583 64.356 24.5467C62.4351 22.2367 61.7238 18.8873 62.4713 15.9171C63.2189 12.9469 65.3827 10.4274 68.089 9.28989C68.2956 9.20342 68.507 9.12692 68.7246 9.08035C68.9423 9.03379 69.2167 8.94066 69.4375 8.88079C70.0163 8.7228 70.0384 8.7361 70.6708 8.58975C70.7859 8.56315 71.0177 8.54485 71.136 8.52157V8.52323ZM74.0774 13.7701C74.1262 13.0151 74.0127 12.2601 73.631 11.5915C73.3472 11.0943 72.9198 10.7334 72.3914 10.6785C70.8001 10.5172 69.6283 11.2689 68.8208 12.6808C68.3161 13.5639 68.0054 14.5734 67.895 15.5978C67.832 16.1766 67.7263 16.7969 67.7137 17.3789C67.7026 17.9045 67.7531 18.3951 67.7531 18.9189C67.7515 18.9755 67.7515 19.0303 67.7531 19.0869C67.7657 19.3995 67.8162 19.7837 68.0512 20.0049C68.2073 20.1512 68.4171 20.1695 68.6126 20.1263C70.3333 19.7388 72.3946 18.2587 73.2793 16.6489C73.6547 15.9654 73.8629 15.192 73.9985 14.4137C74.0364 14.1992 74.0632 13.9847 74.0774 13.7685V13.7701Z" fill="#D8A401"/>
<path d="M155.288 27.3555V26.983C155.288 19.9982 155.289 13.0118 155.286 6.02696C155.286 4.97924 154.906 4.12277 154.119 3.4509C153.975 3.3295 153.928 3.02184 153.93 2.80065C153.93 2.70586 154.16 2.55951 154.304 2.52958C155.461 2.29509 156.63 2.11215 157.781 1.85438C158.697 1.64816 159.612 1.53508 160.546 1.54672C160.809 1.55004 160.921 1.61324 160.921 1.91924C160.921 4.17266 160.943 6.42609 160.949 8.68118C160.949 9.13519 160.913 9.58754 160.891 10.1214C161.172 9.92181 161.416 9.78045 161.624 9.59419C162.148 9.12189 162.787 8.91567 163.427 8.7344C164.776 8.35356 166.151 8.39015 167.474 8.7793C168.819 9.17344 170.102 9.77047 171.038 10.9479C171.387 11.387 171.77 11.8044 172.071 12.2767C172.854 13.5073 173.272 14.8893 173.466 16.3445C173.65 17.7198 173.667 19.1068 173.443 20.4722C173.26 21.5847 172.857 22.6308 172.291 23.6037C171.444 25.0622 170.217 26.0351 168.78 26.7734C167.867 27.2424 166.887 27.4919 165.902 27.595C164.73 27.7164 163.539 27.6765 162.359 27.6515C161.904 27.6416 161.446 27.4952 160.997 27.3771C160.45 27.2324 159.912 27.0495 159.369 26.8882C158.716 26.6936 158.082 26.7934 157.477 27.0711C156.784 27.3871 156.065 27.3904 155.288 27.3588V27.3555ZM160.924 19.0952C160.924 19.6373 160.943 20.1795 160.92 20.7216C160.874 21.7943 161.12 22.7988 161.624 23.7118C162.046 24.4718 162.601 25.132 163.438 25.4131C164.08 25.6293 164.763 25.6742 165.367 25.3665C166.056 25.0139 166.581 24.4236 166.944 23.6952C167.627 22.3198 167.898 20.8297 167.965 19.3047C168.035 17.6483 167.99 15.9919 167.599 14.3688C167.408 13.5772 167.25 12.7656 166.763 12.0987C166.501 11.7412 166.244 11.2988 165.883 11.1159C164.567 10.4457 163.233 10.6768 162.307 12.0422C161.722 12.9037 161.448 13.8832 161.199 14.8827C160.852 16.2697 160.912 17.6849 160.923 19.0968L160.924 19.0952Z" fill="white"/>
<path d="M119.517 25.3416C119.476 25.473 119.454 25.6542 119.372 25.7973C118.998 26.4458 118.498 26.9265 117.832 27.274C116.773 27.8295 115.673 27.7979 114.579 27.605C113.727 27.4553 113.084 26.9098 112.667 26.08C112.281 25.3083 112.111 24.5101 112.119 23.632C112.144 20.9312 112.111 18.2304 112.128 15.5296C112.136 14.2707 111.869 13.0933 111.198 12.0622C110.986 11.7379 110.557 11.4618 110.187 11.382C108.704 11.066 107.862 11.6447 107.121 12.9053C106.707 13.6088 106.491 14.3954 106.493 15.2369C106.498 17.0446 106.498 18.8507 106.491 20.6584C106.488 21.8708 106.463 23.0815 106.465 24.2939C106.465 25.1952 106.93 25.8837 107.553 26.4059C107.895 26.692 107.919 26.963 107.884 27.3472H99.4621C99.4069 26.9664 99.4054 26.6437 99.776 26.3843C100.643 25.7773 100.897 24.8543 100.894 23.8132C100.888 21.3037 100.888 18.7942 100.886 16.2846C100.886 15.3167 100.899 14.3489 100.886 13.3826C100.874 12.3665 100.483 11.5366 99.7066 10.918C99.4716 10.7317 99.3407 10.3575 99.4574 10.0998C99.4953 10.015 99.6214 9.94511 99.7176 9.92515C100.342 9.80042 100.97 9.69565 101.594 9.57425C102.787 9.34309 103.974 9.08864 105.171 8.88242C105.532 8.82089 105.914 8.86912 106.283 8.90404C106.353 8.91069 106.457 9.08864 106.46 9.19009C106.487 9.88025 106.491 10.5721 106.504 11.2622C106.506 11.3421 106.521 11.4219 106.537 11.5466C106.614 11.4901 106.677 11.4668 106.7 11.4236C107.135 10.5105 107.927 10.015 108.706 9.49442C109.942 8.66955 111.3 8.40347 112.735 8.51988C113.473 8.57975 114.175 8.78596 114.853 9.13188C115.525 9.47447 116.052 9.97338 116.475 10.5804C117.131 11.5233 117.601 12.5661 117.679 13.7601C117.919 17.4022 117.741 21.0509 117.782 24.6947C117.79 25.4214 118.243 25.7623 118.895 25.6293C119.096 25.5877 119.28 25.453 119.517 25.3383V25.3416Z" fill="white"/>
<path d="M92.0301 24.6065C91.7809 24.9424 91.5885 25.2234 91.3756 25.4862C90.6028 26.4391 89.6029 27.0012 88.4831 27.3837C87.346 27.7729 86.1947 27.7463 85.0371 27.5966C83.7612 27.4303 82.8418 26.642 82.0532 25.6409C81.323 24.7145 80.995 23.6153 80.8751 22.4511C80.6117 19.8967 80.7868 17.3306 80.7411 14.7712C80.7316 14.239 80.7284 13.7069 80.7411 13.1763C80.7568 12.4064 80.4383 11.781 79.9888 11.2123C79.9068 11.1075 79.8011 11.016 79.6907 10.9445C79.3516 10.725 79.2554 10.3941 79.4683 10.0515C79.5188 9.96999 79.645 9.91178 79.7443 9.89349C80.4698 9.75878 81.2016 9.65069 81.9255 9.50933C82.9538 9.30976 83.9757 9.07028 85.0056 8.88402C85.3794 8.81584 85.7705 8.85243 86.1537 8.83912C86.343 8.83247 86.4013 8.9572 86.4077 9.12184C86.4155 9.33471 86.4124 9.54758 86.4124 9.75879C86.4124 13.5655 86.4155 17.3722 86.4124 21.1789C86.4124 22.3114 86.6016 23.3924 87.335 24.2655C87.5526 24.525 87.9075 24.7096 88.234 24.8093C89.6486 25.2484 90.9214 24.6264 91.5191 23.1829C91.7904 22.5293 91.9528 21.8125 92.0743 21.1074C92.1563 20.6368 92.0758 20.1345 92.0743 19.6456C92.0727 17.6998 92.0727 15.7557 92.0727 13.81C92.0727 13.0716 92.0427 12.3365 91.62 11.7012C91.4765 11.485 91.2983 11.2954 91.128 11.1009C91.0318 10.9928 90.8741 10.9213 90.822 10.7982C90.7321 10.587 90.6485 10.3392 90.6738 10.1213C90.6864 10.0166 90.9435 9.89682 91.1059 9.86356C92.0064 9.67896 92.9133 9.51931 93.817 9.34967C94.6024 9.20166 95.3831 9.02538 96.1732 8.9073C96.5895 8.84411 97.0185 8.88236 97.4412 8.86573C97.6557 8.85741 97.7203 8.9572 97.7172 9.17173C97.7077 9.82032 97.7125 10.4689 97.7109 11.1175C97.7093 15.6476 97.7203 20.1778 97.692 24.7079C97.6872 25.5228 98.4237 25.9036 98.9852 25.6192C99.0625 25.581 99.1524 25.5876 99.2612 25.6026C99.2675 25.7174 99.258 25.8321 99.2107 25.9169C98.5326 27.1293 97.4286 27.5633 96.1827 27.6748C95.6228 27.7247 95.0408 27.7047 94.492 27.5949C94.093 27.5151 93.7145 27.2623 93.3549 27.0362C92.6436 26.5888 92.3534 25.8371 92.1468 25.0422C92.1153 24.9224 92.0837 24.8027 92.0317 24.6031L92.0301 24.6065Z" fill="white"/>
<path d="M147.353 25.1071C146.992 25.4963 146.686 25.8621 146.344 26.1848C145.333 27.141 144.104 27.5668 142.778 27.6798C142.229 27.7264 141.658 27.7048 141.116 27.6033C139.532 27.309 138.255 26.5091 137.411 25.0107C136.993 24.2673 136.747 23.4873 136.78 22.6275C136.807 21.9307 136.736 21.2089 137.064 20.5653C137.287 20.1296 137.561 19.7238 137.821 19.3097C138.466 18.2886 139.452 17.7332 140.469 17.2492C141.264 16.8701 142.089 16.5557 142.903 16.2215C143.494 15.9787 144.098 15.7658 144.682 15.5064C145.218 15.2685 145.749 15.0108 146.26 14.7197C146.898 14.3589 147.073 13.6554 146.781 12.9719C146.445 12.1853 145.973 11.53 145.286 11.0544C144.421 10.4557 143.482 10.291 142.478 10.5339C142.243 10.5904 142.393 10.7168 142.46 10.8349C142.707 11.2822 142.999 11.713 143.171 12.1902C143.496 13.0949 143.045 14.3622 142.314 14.9509C141.524 15.5878 140.663 15.7558 139.744 15.4282C138.794 15.0906 138.189 14.3738 138.006 13.3244C137.818 12.2451 138.048 11.2406 138.797 10.4756C139.244 10.02 139.818 9.68071 140.373 9.36473C141.311 8.83089 142.351 8.67956 143.401 8.56481C144.874 8.40349 146.33 8.48997 147.768 8.83256C148.967 9.1186 150.071 9.62916 150.993 10.5039C151.202 10.7002 151.361 10.9546 151.536 11.1874C152.367 12.2867 152.818 13.524 152.82 14.9442C152.823 17.5802 152.851 20.2178 152.864 22.8537C152.867 23.4274 152.805 24.0045 152.845 24.5749C152.917 25.5994 152.943 25.5611 153.829 25.616C154.1 25.6326 154.335 25.6077 154.435 25.2701C154.466 25.2867 154.499 25.3017 154.531 25.3183C154.483 25.5029 154.463 25.7025 154.383 25.8688C154.103 26.4342 153.643 26.8084 153.129 27.1261C152.064 27.7846 150.913 27.778 149.749 27.6133C149.514 27.5801 149.296 27.4104 149.071 27.304C148.888 27.2175 148.691 27.156 148.525 27.0429C147.968 26.6587 147.642 26.095 147.445 25.4381C147.415 25.3399 147.388 25.2402 147.349 25.1021L147.353 25.1071ZM147.259 18.4882C147.259 17.8828 147.259 17.2758 147.259 16.6705C147.259 16.3412 147.14 16.2697 146.868 16.4277C145.958 16.9565 145.033 17.4604 144.141 18.0176C143.428 18.4616 142.9 19.0969 142.613 19.9317C142.3 20.8414 142.332 21.7544 142.658 22.6441C142.874 23.2329 143.258 23.7401 143.819 23.9629C144.556 24.254 145.472 24.0927 146.049 23.4125C146.472 22.9136 146.768 22.3415 146.975 21.7095C147.319 20.6585 147.254 19.5708 147.257 18.4882H147.259Z" fill="white"/>
<path d="M199.45 20.058C199.235 21.0591 198.916 21.9987 198.45 22.8685C197.964 23.7749 197.432 24.6579 196.715 25.393C195.917 26.2129 194.996 26.7916 193.941 27.2057C192.476 27.7828 190.984 27.7795 189.484 27.5949C187.78 27.3853 186.318 26.617 185.052 25.3714C183.59 23.9329 182.768 22.175 182.499 20.1261C182.197 17.8361 182.445 15.6093 183.464 13.5322C183.864 12.714 184.42 12.0022 185.039 11.3403C185.718 10.6152 186.511 10.0814 187.347 9.60739C187.62 9.45272 187.938 9.38953 188.22 9.25316C189.266 8.7426 190.383 8.60623 191.513 8.50977C192.562 8.41997 193.602 8.50479 194.617 8.73429C196.691 9.20327 198.278 10.3807 199.15 12.4711C199.301 12.8337 199.371 13.2478 199.416 13.6453C199.666 15.8272 199.185 17.8062 197.623 19.3146C196.723 20.1844 195.716 20.9627 194.452 21.2803C193.662 21.4782 192.889 21.6977 192.069 21.6512C191.203 21.6013 190.337 21.5547 189.473 21.5031C189.395 21.4982 189.323 21.4533 189.246 21.4333C189.165 21.4133 189.085 21.4034 189.003 21.3901C189.009 21.4998 188.976 21.6445 189.029 21.7144C189.375 22.1551 189.692 22.6423 190.107 22.9999C191.528 24.2256 193.165 24.3436 194.862 23.8281C196.66 23.2809 197.871 21.9987 198.694 20.2742C198.839 19.9715 198.946 19.9332 199.443 20.0613L199.45 20.058ZM188.017 17.9043C188.072 18.345 188.17 19.1 188.263 19.8567C188.295 20.1145 188.433 20.1744 188.648 20.1095C188.832 20.053 189.022 20.0064 189.197 19.9266C190.78 19.2065 192.244 18.3367 193.244 16.7651C194.1 15.4197 194.486 13.9829 194.09 12.4196C193.843 11.4401 193.31 10.7516 192.203 10.7898C191.86 10.8015 191.517 10.8264 191.178 10.8713C191.021 10.8913 190.854 10.9478 190.725 11.0376C189.738 11.7311 189.061 12.689 188.615 13.8332C188.146 15.0339 188.064 16.3045 188.017 17.9043Z" fill="white"/>
<path d="M182.179 27.3506H173.743C173.743 27.1477 173.727 26.9581 173.749 26.7735C173.76 26.6854 173.822 26.5806 173.892 26.5257C174.659 25.9221 175.149 25.177 175.148 24.121C175.148 22.5278 175.186 20.9346 175.189 19.3414C175.19 18.1623 175.149 16.9849 175.151 15.8058C175.154 12.5212 175.183 9.23839 175.173 5.95388C175.17 5.03089 174.913 4.19438 174.12 3.64391C173.998 3.55909 173.888 3.43104 173.814 3.298C173.61 2.92714 173.743 2.60783 174.127 2.52967C175.7 2.2087 177.271 1.86279 178.851 1.59005C179.422 1.49193 180.021 1.55845 180.606 1.57508C180.674 1.57674 180.789 1.73141 180.794 1.81955C180.814 2.2536 180.808 2.69098 180.807 3.1267C180.803 6.7089 180.799 10.2911 180.799 13.8733C180.799 16.5092 180.805 19.1452 180.803 21.7811C180.803 22.6209 180.764 23.4608 180.778 24.2989C180.792 25.177 181.212 25.8755 181.847 26.3827C182.199 26.6638 182.242 26.9482 182.179 27.3523V27.3506Z" fill="white"/>
<path d="M136.555 25.4662C136.471 25.6558 136.419 25.8737 136.299 26.0333C135.194 27.5018 133.693 27.8095 132.016 27.6714C131.291 27.6116 130.729 27.2523 130.217 26.7834C130.013 26.5954 129.888 26.3027 129.754 26.0433C129.444 25.4463 129.284 24.8027 129.283 24.1225C129.28 19.8817 129.281 15.6393 129.281 11.3985C129.281 11.0177 129.272 11.0194 128.911 11.0476C128.559 11.0759 128.204 11.0776 127.851 11.0975C127.666 11.1075 127.6 11.026 127.602 10.8348C127.608 10.261 127.611 9.68727 127.602 9.11352C127.599 8.89566 127.676 8.85741 127.873 8.86073C128.781 8.87404 129.69 8.94555 130.59 8.71937C131.82 8.41171 132.723 7.32741 132.702 6.0136C132.694 5.55294 132.708 5.5546 133.133 5.55626C133.607 5.55793 134.084 5.57123 134.558 5.55626C134.789 5.54961 134.856 5.63609 134.853 5.86892C134.844 6.75033 134.858 7.63341 134.844 8.51648C134.841 8.76594 134.912 8.85741 135.151 8.85075C135.615 8.83745 136.08 8.85242 136.546 8.84078C136.724 8.83579 136.82 8.90065 136.82 9.08691C136.817 9.68061 136.817 10.276 136.792 10.8697C136.788 10.9312 136.632 11.0343 136.544 11.0377C136.099 11.056 135.654 11.0626 135.21 11.041C134.932 11.0277 134.845 11.1191 134.847 11.4168C134.855 15.1154 134.85 18.8157 134.85 22.5143C134.85 23.2045 134.85 23.8963 134.853 24.5865C134.853 24.7229 134.866 24.8626 134.893 24.9973C135.019 25.6192 135.7 25.9053 136.219 25.5594C136.301 25.5045 136.386 25.4596 136.47 25.408C136.498 25.428 136.525 25.4479 136.553 25.4662H136.555Z" fill="white"/>
<path d="M127.772 27.3537H119.379C119.3 26.9513 119.35 26.622 119.677 26.3559C120.369 25.7921 120.727 25.0255 120.816 24.1191C120.833 23.9428 120.79 23.7616 120.79 23.582C120.787 22.2964 120.79 21.0126 120.79 19.727C120.79 17.5052 120.804 15.2834 120.779 13.0632C120.768 12.1069 120.243 11.4151 119.529 10.8913C119.205 10.6534 119.402 10.3524 119.371 10.083C119.366 10.0414 119.573 9.94333 119.689 9.92005C120.669 9.71549 121.65 9.51426 122.634 9.32468C123.527 9.15338 124.422 8.98708 125.32 8.84738C125.605 8.80248 125.906 8.83241 126.195 8.87233C126.26 8.88064 126.348 9.06857 126.35 9.17666C126.364 10.2826 126.362 11.3869 126.362 12.4928C126.362 16.0334 126.359 19.5724 126.358 23.113C126.358 23.4639 126.348 23.8131 126.351 24.164C126.361 25.107 126.81 25.8188 127.462 26.4058C127.808 26.7185 127.862 26.8232 127.772 27.3537Z" fill="white"/>
<path d="M123.484 7.86959C121.665 7.93445 120.244 6.23315 120.328 4.36056C120.411 2.478 121.987 1.07938 123.594 1.09933C125.483 1.12261 126.819 2.8289 126.808 4.58674C126.795 6.33959 125.378 7.96438 123.485 7.86959H123.484Z" fill="white"/>
<path d="M58.8282 8.5747C58.5207 8.59133 58.2841 8.65453 57.9419 8.72937C57.8283 8.746 57.6422 8.81585 57.5303 8.83913C57.4009 8.8674 57.2716 8.90066 57.1439 8.9439C56.8947 9.02705 56.6518 9.1285 56.4105 9.23327C56.3758 9.24824 56.3427 9.26321 56.308 9.27817C56.0809 9.37962 55.8459 9.50268 55.6267 9.6191C55.5462 9.66234 55.0337 10.0116 54.8697 10.0947C54.652 10.2062 54.5195 10.0914 54.4959 9.8486C54.4848 9.74383 54.499 9.63573 54.5006 9.53096C54.5038 9.39292 54.5274 9.20999 54.4691 9.07861C54.4596 9.05865 54.4486 9.04202 54.4344 9.02872C54.3098 8.78591 54.0354 8.6379 53.7389 8.68447L47.719 9.62575C47.1812 9.71057 47.5928 10.1729 47.7158 10.6868C47.7206 10.7034 47.73 10.7184 47.7363 10.735C47.7505 10.8182 47.8262 10.8747 47.9351 10.9379C48.1953 11.0859 48.4003 11.2755 48.5628 11.495C48.6116 11.5748 48.64 11.6231 48.6968 11.7029C48.8419 11.9623 48.9349 12.2567 48.9775 12.581C48.9933 12.7007 49.0043 12.8221 49.0122 12.9435C49.0122 12.9485 49.0122 12.9552 49.0122 12.9602V22.8037C49.0012 23.3808 48.9823 23.9562 48.9507 24.5316C48.9239 25.0355 48.9097 25.596 48.4934 25.9735C48.2773 26.1697 48.0265 26.326 47.7868 26.4924C47.6196 26.6088 47.3909 27.1077 47.5045 27.2324C47.596 27.3339 47.801 27.3521 47.9571 27.3538C49.7882 27.3621 51.6176 27.3621 53.4487 27.3621C54.1663 27.3621 54.8854 27.3671 55.603 27.3538C55.6976 27.3521 55.8522 27.2773 55.8743 27.2025C55.9752 26.8499 55.8522 26.6021 55.5746 26.3793C54.969 25.8937 54.5921 25.2534 54.5621 24.4451C54.5621 24.4086 54.5621 24.3736 54.5605 24.337C54.5653 24.2339 54.57 24.1807 54.57 24.1275L54.5842 20.7499C54.5874 19.6007 54.5889 18.4515 54.5842 17.3024L54.581 13.1298C54.581 13.1165 54.581 13.0716 54.5874 13.0117C54.6252 12.6375 54.6883 12.3947 54.805 12.107C54.8917 11.8941 55.081 11.7445 55.2608 11.6164C55.4043 11.5133 55.5746 11.5532 55.674 11.6829C55.6598 11.8176 55.6503 11.9523 55.6503 12.0904C55.6503 14.0361 57.1454 15.6127 58.9907 15.6127C61.0394 15.6127 62.6559 13.6686 62.2742 11.4351C61.9809 9.71888 60.4763 8.4849 58.8251 8.57304L58.8282 8.5747Z" fill="#D8A401"/>
<path d="M33.3275 8.56128H16.1211V26.7051H33.3275V8.56128Z" fill="#D8A401"/>
<path d="M21.865 14.7345H16.1291L16.1133 8.55298H21.8477L21.865 14.7345Z" fill="#AA802D"/>
<path d="M27.6189 20.9162H21.883L21.8672 14.7346H27.6016L27.6189 20.9162Z" fill="#AA802D"/>
<path d="M33.3338 14.7345H27.5978L27.582 8.55298H33.3164L33.3338 14.7345Z" fill="#AA802D"/>
<path d="M33.4618 32.8536L21.9977 46.8531L21.9709 40.6832L13.9512 40.5684C11.9641 40.5402 9.98792 40.1427 8.17107 39.3029C3.39397 37.096 0.736526 32.6573 0.335938 25.8405L8.04175 25.8289L9.88856 25.8405L21.892 25.912V19.6074L33.4618 32.8536Z" fill="white"/>
<path d="M0.332856 25.8403C0.329702 25.8187 0.328125 25.7954 0.328125 25.7738L7.99924 18.2219V25.832" fill="#CCE2F7"/>
</svg>
