<svg width="200" height="65" viewBox="0 0 200 65" fill="none" xmlns="http://www.w3.org/2000/svg">
<path d="M160.675 33.4923C161.669 33.4535 162.395 33.4341 162.855 33.4341C163.352 33.4341 164.079 33.4535 165.036 33.4923C165.072 33.2789 165.091 32.9587 165.091 32.5319C165.091 31.62 164.907 30.8828 164.539 30.3201C164.171 29.7381 163.601 29.4471 162.828 29.4471C162.073 29.4471 161.512 29.7284 161.144 30.291C160.776 30.8537 160.592 31.5812 160.592 32.4737C160.592 32.8035 160.62 33.1431 160.675 33.4923Z" fill="white"/>
<path d="M144.951 34.54C145.613 34.54 146.183 34.2877 146.662 33.7833C147.158 33.2595 147.407 32.658 147.407 31.979C147.407 31.2805 147.158 30.6791 146.662 30.1746C146.183 29.6508 145.613 29.3889 144.951 29.3889C144.307 29.3889 143.736 29.6508 143.239 30.1746C142.743 30.6791 142.494 31.2805 142.494 31.979C142.494 32.658 142.743 33.2595 143.239 33.7833C143.736 34.2877 144.307 34.54 144.951 34.54Z" fill="white"/>
<path fill-rule="evenodd" clip-rule="evenodd" d="M146.556 62.9187C164.26 67.9209 194.794 58.2455 198.704 42.8596C202.613 27.4737 179.942 6.20832 162.238 1.20611C144.534 -3.79609 131.617 7.41387 127.707 22.7997C123.798 38.1856 128.852 57.9165 146.556 62.9187ZM176.191 41.4663C177.479 42.2617 179.053 42.6594 180.911 42.6594C182.622 42.6594 184.002 42.6012 185.051 42.4848C186.099 42.349 186.992 41.9998 187.728 41.4372C188.464 40.8745 188.832 40.0014 188.832 38.818C188.832 37.5957 188.353 36.7129 187.396 36.1697C186.458 35.6264 185.281 35.3548 183.864 35.3548C182.502 35.3548 181.251 35.5488 180.111 35.9369C180.478 33.8609 180.764 32.0954 180.966 30.6403C181.168 29.1852 181.27 27.8174 181.27 26.5369C181.27 25.334 180.948 24.3251 180.304 23.5103C179.678 22.6954 178.813 22.288 177.709 22.288C175.925 22.288 174.729 23.1513 174.122 24.8781C173.533 26.5854 173.238 28.8844 173.238 31.7753C173.238 33.2498 173.266 34.4623 173.321 35.413C173.376 36.3637 173.487 37.1688 173.652 37.8285C174.057 39.4388 174.904 40.6514 176.191 41.4663ZM158.246 42.7176C157.014 42.7176 156.02 42.0871 155.266 40.826C154.53 39.5455 154.097 37.8188 153.969 35.6458C153.95 35.3354 153.941 34.8795 153.941 34.278C153.941 31.9305 154.309 29.8545 155.045 28.0502C155.781 26.2264 156.821 24.8198 158.164 23.8304C159.525 22.8215 161.107 22.3171 162.911 22.3171C164.714 22.3171 166.287 22.8215 167.63 23.8304C168.991 24.8198 170.031 26.2167 170.749 28.0211C171.485 29.8254 171.853 31.9111 171.853 34.278C171.853 34.8795 171.843 35.3354 171.825 35.6458C171.696 37.8576 171.264 39.5843 170.528 40.826C169.792 42.0677 168.798 42.6885 167.547 42.6885C166.535 42.6885 165.827 42.3975 165.422 41.8155C165.036 41.2334 164.842 40.5253 164.842 39.691C164.842 39.303 164.87 38.9635 164.925 38.6725C163.969 38.7113 163.122 38.7307 162.386 38.7307C161.926 38.7307 161.42 38.7113 160.868 38.6725C160.923 38.9635 160.951 39.303 160.951 39.691C160.951 40.5447 160.749 41.2625 160.344 41.8446C159.958 42.4266 159.258 42.7176 158.246 42.7176ZM139.928 42.6885C138.419 42.6885 137.389 41.7767 136.837 39.9529C136.303 38.1292 136.036 35.801 136.036 32.9684C136.036 31.1253 136.349 29.3986 136.975 27.7883C137.618 26.1585 138.594 24.8489 139.9 23.8595C141.206 22.8506 142.798 22.3462 144.675 22.3462C146.183 22.3462 147.554 22.6857 148.787 23.3647C150.019 24.0244 150.995 24.9751 151.712 26.2167C152.448 27.4584 152.816 28.8941 152.816 30.5239C152.816 32.4058 152.457 33.987 151.74 35.2675C151.022 36.548 150.093 37.4987 148.952 38.1195C147.812 38.7404 146.606 39.0508 145.337 39.0508C144.307 39.0508 143.359 38.8665 142.494 38.4978C142.605 39.1187 142.66 39.594 142.66 39.9238C142.66 41.767 141.749 42.6885 139.928 42.6885Z" fill="white"/>
<path d="M10.5254 26.8133C8.93157 26.8133 7.71033 27.3263 6.86168 28.3521C6.01302 29.378 5.5887 30.8294 5.5887 32.7065C5.5887 34.6054 6.05442 36.0678 6.98587 37.0937C7.93802 38.1195 9.211 38.6324 10.8048 38.6324C11.6535 38.6324 12.3676 38.5124 12.9472 38.2723C13.5474 38.0322 14.1166 37.7594 14.6548 37.4538C15.0067 37.7594 15.2758 38.1304 15.4621 38.567C15.6691 38.9817 15.7725 39.4728 15.7725 40.0402C15.7725 40.9351 15.2965 41.6991 14.3443 42.332C13.4129 42.9432 11.9847 43.2488 10.0597 43.2488C8.67283 43.2488 7.3688 43.0414 6.14757 42.6267C4.92633 42.212 3.86034 41.579 2.94959 40.7278C2.03884 39.8547 1.31438 38.7634 0.776208 37.4538C0.258736 36.1224 0 34.5399 0 32.7065C0 31.004 0.248387 29.5089 0.74516 28.2212C1.26263 26.9116 1.95604 25.8093 2.8254 24.9144C3.71545 24.0195 4.75039 23.3429 5.93023 22.8846C7.11007 22.4262 8.3727 22.197 9.71812 22.197C11.6224 22.197 13.092 22.5244 14.127 23.1792C15.1826 23.834 15.7105 24.6743 15.7105 25.7002C15.7105 26.2677 15.5759 26.7588 15.3068 27.1735C15.0377 27.5882 14.7273 27.9156 14.3754 28.1557C13.8372 27.7846 13.2576 27.4681 12.6367 27.2062C12.0364 26.9443 11.3326 26.8133 10.5254 26.8133Z" fill="white"/>
<path d="M32.5571 34.7036C32.5571 36.0569 32.3604 37.2683 31.9672 38.3378C31.5739 39.3855 31.015 40.2694 30.2905 40.9897C29.5868 41.71 28.7381 42.2556 27.7446 42.6267C26.751 42.9977 25.6436 43.1833 24.4224 43.1833C23.2012 43.1833 22.0938 42.9868 21.1002 42.594C20.1067 42.2011 19.2477 41.6445 18.5232 40.9242C17.8195 40.1821 17.271 39.2872 16.8777 38.2396C16.4844 37.1919 16.2878 36.0132 16.2878 34.7036C16.2878 33.4159 16.4844 32.2482 16.8777 31.2005C17.271 30.1528 17.8195 29.2688 18.5232 28.5486C19.2477 27.8064 20.1067 27.239 21.1002 26.8461C22.0938 26.4532 23.2012 26.2568 24.4224 26.2568C25.6436 26.2568 26.751 26.4641 27.7446 26.8788C28.7381 27.2717 29.5868 27.8392 30.2905 28.5813C31.015 29.3016 31.5739 30.1855 31.9672 31.2332C32.3604 32.2809 32.5571 33.4377 32.5571 34.7036ZM21.6902 34.7036C21.6902 36.0351 21.9282 37.0609 22.4043 37.7812C22.901 38.4796 23.5841 38.8289 24.4535 38.8289C25.3228 38.8289 25.9852 38.4687 26.4406 37.7485C26.9166 37.0282 27.1547 36.0132 27.1547 34.7036C27.1547 33.3941 26.9166 32.39 26.4406 31.6916C25.9645 30.9713 25.2918 30.6112 24.4224 30.6112C23.5531 30.6112 22.8803 30.9713 22.4043 31.6916C21.9282 32.39 21.6902 33.3941 21.6902 34.7036Z" fill="white"/>
<path d="M41.435 26.2568C42.2836 26.2568 43.1116 26.3877 43.9188 26.6496C44.7468 26.8897 45.4609 27.2608 46.0612 27.7628C46.6821 27.3263 47.3755 26.9661 48.1414 26.6824C48.9279 26.3986 49.8697 26.2568 50.9668 26.2568C51.7533 26.2568 52.5192 26.3659 53.2644 26.5842C54.0302 26.8024 54.7029 27.1517 55.2825 27.6318C55.8828 28.0902 56.3588 28.7123 56.7107 29.498C57.0626 30.2619 57.2385 31.2005 57.2385 32.3136V42.6267C57.0316 42.6922 56.7004 42.7577 56.245 42.8231C55.8103 42.8886 55.3549 42.9214 54.8789 42.9214C54.4235 42.9214 54.0095 42.8886 53.6369 42.8231C53.2851 42.7577 52.9849 42.6267 52.7365 42.4303C52.4882 42.2338 52.2915 41.9719 52.1466 41.6445C52.0224 41.2953 51.9603 40.8478 51.9603 40.3022V32.4773C51.9603 31.8225 51.7844 31.3533 51.4325 31.0695C51.0806 30.764 50.6046 30.6112 50.0043 30.6112C49.7145 30.6112 49.404 30.6876 49.0728 30.8403C48.7417 30.9713 48.4933 31.1132 48.3277 31.266C48.3484 31.3533 48.3587 31.4406 48.3587 31.5279C48.3587 31.5934 48.3587 31.6588 48.3587 31.7243V42.6267C48.131 42.6922 47.7895 42.7577 47.3341 42.8231C46.8995 42.8886 46.4544 42.9214 45.9991 42.9214C45.5437 42.9214 45.1297 42.8886 44.7571 42.8231C44.4052 42.7577 44.1051 42.6267 43.8567 42.4303C43.6083 42.2338 43.4117 41.9719 43.2668 41.6445C43.1426 41.2953 43.0805 40.8478 43.0805 40.3022V32.4773C43.0805 31.8225 42.8839 31.3533 42.4906 31.0695C42.118 30.764 41.6626 30.6112 41.1245 30.6112C40.7519 30.6112 40.4311 30.6766 40.162 30.8076C39.8929 30.9167 39.6652 31.0259 39.4789 31.135V42.6267C39.2719 42.6922 38.9407 42.7577 38.4854 42.8231C38.0507 42.8886 37.5953 42.9214 37.1192 42.9214C36.6639 42.9214 36.2499 42.8886 35.8773 42.8231C35.5254 42.7577 35.2253 42.6267 34.9769 42.4303C34.7285 42.2338 34.5319 41.9719 34.387 41.6445C34.2628 41.2953 34.2007 40.8478 34.2007 40.3022V30.4147C34.2007 29.8254 34.3145 29.3561 34.5422 29.0069C34.7906 28.6577 35.1218 28.3303 35.5358 28.0247C36.2395 27.5009 37.1089 27.0753 38.1438 26.7479C39.1995 26.4205 40.2965 26.2568 41.435 26.2568Z" fill="white"/>
<path d="M66.4507 26.2568C67.6926 26.2568 68.8414 26.4314 69.897 26.7806C70.9734 27.108 71.8945 27.6209 72.6603 28.3194C73.4262 29.0178 74.0265 29.9018 74.4611 30.9713C74.8958 32.019 75.1132 33.274 75.1132 34.7364C75.1132 36.1333 74.9269 37.3556 74.5543 38.4033C74.1817 39.4509 73.6539 40.3349 72.9708 41.0552C72.2878 41.7536 71.4598 42.2775 70.487 42.6267C69.5348 42.9759 68.4688 43.1505 67.289 43.1505C66.3989 43.1505 65.571 43.0087 64.8051 42.7249V48.1597C64.5981 48.2252 64.267 48.2907 63.8116 48.3562C63.3562 48.4435 62.8905 48.4871 62.4144 48.4871C61.959 48.4871 61.545 48.4544 61.1725 48.3889C60.8206 48.3234 60.5205 48.1925 60.2721 47.996C60.0237 47.7996 59.8374 47.5268 59.7132 47.1775C59.589 46.8501 59.5269 46.4136 59.5269 45.8679V30.1528C59.5269 29.5635 59.6408 29.0833 59.8684 28.7123C60.1168 28.3412 60.448 28.0029 60.862 27.6973C61.5036 27.2608 62.3006 26.9116 63.2527 26.6496C64.2048 26.3877 65.2708 26.2568 66.4507 26.2568ZM66.5128 38.7634C68.6448 38.7634 69.7108 37.4211 69.7108 34.7364C69.7108 33.3395 69.4417 32.3027 68.9035 31.6261C68.386 30.9495 67.6305 30.6112 66.637 30.6112C66.2437 30.6112 65.8918 30.6657 65.5813 30.7749C65.2708 30.8622 65.0018 30.9713 64.7741 31.1023V38.305C65.0225 38.436 65.2915 38.5451 65.5813 38.6324C65.8711 38.7197 66.1816 38.7634 66.5128 38.7634Z" fill="white"/>
<path d="M83.2762 39.1235C83.6281 39.1235 84.011 39.0908 84.425 39.0253C84.8597 38.938 85.1805 38.8289 85.3875 38.6979V36.0787L83.152 36.2752C82.5724 36.3188 82.0964 36.4498 81.7238 36.668C81.3512 36.8863 81.1649 37.2137 81.1649 37.6502C81.1649 38.0868 81.3202 38.4469 81.6306 38.7307C81.9618 38.9926 82.5103 39.1235 83.2762 39.1235ZM83.0278 26.2568C84.1456 26.2568 85.1598 26.3768 86.0705 26.6169C87.002 26.857 87.7886 27.228 88.4302 27.7301C89.0926 28.2102 89.5997 28.8323 89.9516 29.5962C90.3035 30.3383 90.4794 31.2223 90.4794 32.2482V39.5819C90.4794 40.1494 90.3242 40.6187 90.0137 40.9897C89.7239 41.3389 89.372 41.6445 88.958 41.9064C87.6126 42.7577 85.7187 43.1833 83.2762 43.1833C82.1792 43.1833 81.1856 43.0741 80.2956 42.8559C79.4262 42.6376 78.6707 42.3102 78.029 41.8737C77.4081 41.4371 76.9217 40.8806 76.5698 40.2039C76.2386 39.5273 76.073 38.7416 76.073 37.8467C76.073 36.3406 76.4973 35.1838 77.346 34.3763C78.1946 33.5687 79.509 33.0667 81.2891 32.8702L85.3564 32.4119V32.1827C85.3564 31.5497 85.0874 31.1023 84.5492 30.8403C84.0317 30.5566 83.2762 30.4147 82.2827 30.4147C81.4961 30.4147 80.7302 30.502 79.9851 30.6766C79.2399 30.8513 78.5672 31.0695 77.9669 31.3314C77.6979 31.135 77.4702 30.8403 77.2839 30.4475C77.0976 30.0328 77.0044 29.6071 77.0044 29.1706C77.0044 28.6031 77.1286 28.1557 77.377 27.8283C77.6461 27.4791 78.0497 27.1844 78.5879 26.9443C79.1882 26.7042 79.8919 26.5296 80.6992 26.4205C81.5271 26.3113 82.3034 26.2568 83.0278 26.2568Z" fill="white"/>
<path d="M98.0535 42.6267C97.8465 42.6922 97.5153 42.7577 97.06 42.8231C96.6253 42.8886 96.1699 42.9214 95.6938 42.9214C95.2385 42.9214 94.8245 42.8886 94.4519 42.8231C94.1 42.7577 93.7999 42.6267 93.5515 42.4303C93.3031 42.2338 93.1065 41.9719 92.9616 41.6445C92.8374 41.2953 92.7753 40.8478 92.7753 40.3022V30.4802C92.7753 29.9782 92.8581 29.5526 93.0237 29.2034C93.21 28.8323 93.4687 28.5049 93.7999 28.2212C94.1311 27.9374 94.5347 27.6864 95.0108 27.4681C95.5075 27.228 96.0354 27.0207 96.5942 26.8461C97.1531 26.6715 97.7327 26.5405 98.3329 26.4532C98.9332 26.3441 99.5335 26.2895 100.134 26.2895C101.127 26.2895 101.914 26.4969 102.493 26.9116C103.073 27.3044 103.363 27.9592 103.363 28.876C103.363 29.1815 103.321 29.4871 103.239 29.7927C103.156 30.0764 103.052 30.3383 102.928 30.5784C102.493 30.5784 102.048 30.6003 101.593 30.6439C101.138 30.6876 100.693 30.753 100.258 30.8403C99.8233 30.9277 99.4093 31.0259 99.016 31.135C98.6434 31.2223 98.3226 31.3314 98.0535 31.4624V42.6267Z" fill="white"/>
<path d="M112.012 43.1833C110.791 43.1833 109.652 43.0087 108.597 42.6594C107.562 42.2884 106.651 41.7427 105.865 41.0224C105.099 40.3022 104.488 39.3964 104.033 38.305C103.598 37.2137 103.381 35.9369 103.381 34.4745C103.381 33.0339 103.598 31.8007 104.033 30.7749C104.488 29.7272 105.078 28.876 105.802 28.2212C106.527 27.5445 107.355 27.0534 108.286 26.7479C109.218 26.4205 110.17 26.2568 111.143 26.2568C112.24 26.2568 113.233 26.4314 114.123 26.7806C115.034 27.1298 115.81 27.61 116.452 28.2212C117.114 28.8323 117.622 29.5635 117.973 30.4147C118.346 31.266 118.532 32.1936 118.532 33.1976C118.532 33.9397 118.336 34.5072 117.942 34.9001C117.549 35.293 117.001 35.544 116.297 35.6531L108.628 36.8645C108.856 37.5848 109.321 38.1304 110.025 38.5015C110.729 38.8507 111.536 39.0253 112.447 39.0253C113.295 39.0253 114.092 38.9162 114.838 38.6979C115.603 38.4578 116.224 38.185 116.7 37.8794C117.032 38.0977 117.311 38.4033 117.539 38.7961C117.766 39.189 117.88 39.6037 117.88 40.0402C117.88 41.0224 117.446 41.7536 116.576 42.2338C115.914 42.6049 115.169 42.8559 114.341 42.9868C113.513 43.1178 112.737 43.1833 112.012 43.1833ZM111.143 30.3165C110.646 30.3165 110.211 30.4038 109.839 30.5784C109.487 30.753 109.197 30.9822 108.969 31.266C108.742 31.5279 108.566 31.8335 108.442 32.1827C108.338 32.5101 108.276 32.8484 108.255 33.1976L113.565 32.2809C113.502 31.8444 113.275 31.4078 112.882 30.9713C112.488 30.5348 111.909 30.3165 111.143 30.3165Z" fill="white"/>
</svg>
