<svg width="210" height="53" viewBox="0 0 210 53" fill="none" xmlns="http://www.w3.org/2000/svg">
<mask id="mask0_247_1300" style="mask-type:luminance" maskUnits="userSpaceOnUse" x="0" y="0" width="210" height="53">
<path d="M209.125 0H0V53H209.125V0Z" fill="white"/>
</mask>
<g mask="url(#mask0_247_1300)">
<path d="M22.4875 51.4984L0.875 38.8667V13.6917L22.4875 1.06006L44.1 13.6917V38.8667L22.4875 51.4984ZM40.6875 36.8351V15.6351L22.4875 5.03506L4.2875 15.6351V36.8351L22.4875 47.4351L40.6875 36.8351Z" fill="white"/>
<path d="M71.6625 35.3333H54.6875V19.345H71.05V22.8783H58.45V25.2633H67.2V28.7966H58.45V31.8H71.6625V35.3333Z" fill="white"/>
<path d="M76.6484 19.345V35.3333H80.4109V23.4966L90.0359 35.3333H95.0234V19.345H91.1734V31.1816L81.6359 19.345H76.6484Z" fill="white"/>
<path d="M99.4883 19.345V22.8783H106.576V35.3333H110.338V22.8783H117.513V19.345H99.4883Z" fill="white"/>
<path d="M190.312 19.345V22.8783H197.487V35.3333H201.25V22.8783H208.425V19.345H190.312Z" fill="white"/>
<path d="M134.489 19.345C136.239 19.345 137.552 19.7866 138.602 20.7583C139.652 21.73 140.089 22.9666 140.089 24.5566C140.089 27.1183 138.952 28.7083 136.677 29.415L140.877 35.3333H136.502L132.564 29.7683H125.739V35.3333H121.977V19.345H134.489ZM125.739 22.8783V26.235H133.877C136.152 26.235 136.327 25.44 136.327 24.5566C136.327 23.4966 135.714 22.8783 133.964 22.8783H125.739Z" fill="white"/>
<path d="M154.877 32.2416C159.777 32.2416 160.215 30.5633 160.215 29.0616V19.345H163.977V29.945C163.977 33.7433 159.952 35.775 154.877 35.775C149.802 35.775 145.777 33.7433 145.777 29.945V19.345H149.54V29.0616C149.452 30.5633 149.977 32.2416 154.877 32.2416Z" fill="white"/>
<path d="M184.19 24.0267L186.552 21.5533C183.402 18.9917 179.377 19.08 178.24 18.9917C177.102 18.9033 169.665 18.7267 169.315 23.85C169.052 27.295 172.377 28.4433 177.627 28.62C182.877 28.7967 183.14 29.68 183.14 30.2983C183.14 30.9167 182.44 32.33 177.715 32.2417C174.652 32.1533 172.027 31.0934 170.627 29.8567L168.527 32.6833C170.977 34.6267 174.215 35.6867 178.065 35.6867C182.79 35.6867 186.902 34.45 187.077 30.5633C187.34 26.0583 182.702 25.44 178.502 25.175C174.477 24.8217 173.165 24.7333 173.165 23.7617C173.165 22.6133 176.227 22.525 178.327 22.6133C180.952 22.525 182.79 23.2317 184.19 24.0267Z" fill="white"/>
<path d="M25.9015 37.8951V34.3618L37.189 27.8251V24.2918L25.9015 30.8284V27.2951L37.189 20.7584V17.6668L22.489 9.18677L7.78906 17.6668V34.8034L22.489 43.3718L37.189 34.8034V31.2701L25.9015 37.8951Z" fill="white"/>
</g>
</svg>
