<svg width="201" height="33" viewBox="0 0 201 33" fill="none" xmlns="http://www.w3.org/2000/svg">
<g clip-path="url(#clip0_544_667)">
<path d="M45.7045 2.16144C44.9171 1.80846 43.9791 1.63177 42.8911 1.63177H37.6289V13.7883H40.4598V10.4369H42.8911C43.9791 10.4369 44.9171 10.2574 45.7045 9.89831C46.4919 9.53982 47.0995 9.03317 47.528 8.37912C47.9563 7.72489 48.1706 6.94057 48.1706 6.02579C48.1706 5.12279 47.9563 4.34114 47.528 3.68139C47.0995 3.02145 46.4917 2.51499 45.7045 2.16182V2.16144ZM44.68 7.58853C44.2397 7.95939 43.5914 8.14425 42.7348 8.14425H40.4598V3.92406H42.7348C43.5914 3.92406 44.2397 4.10664 44.68 4.47122C45.1199 4.836 45.3399 5.35425 45.3399 6.0256C45.3399 6.69714 45.1199 7.21824 44.68 7.58853ZM61.9424 8.35269C61.9424 9.49893 61.7049 10.3297 61.2302 10.8449C60.7555 11.3601 60.0898 11.6176 59.2332 11.6176C58.3879 11.6176 57.7279 11.3601 57.2534 10.8449C56.7783 10.3297 56.5412 9.49893 56.5412 8.35269V1.63177H53.7105V8.42211C53.7105 10.2169 54.1968 11.5944 55.1692 12.5554C56.1418 13.5166 57.4904 13.997 59.2157 13.997C60.9291 13.997 62.2722 13.5166 63.2448 12.5554C64.2176 11.5944 64.7037 10.2169 64.7037 8.42211V1.63177H61.9422V8.35288L61.9424 8.35269ZM77.8526 9.17866L73.3 1.63177H70.9729V13.7885H73.5954V6.61821L77.1729 12.486H78.4234L82.0045 6.53738L82.0355 13.7885H84.658V1.63177H82.3134L77.8526 9.17866ZM100.114 13.7883H103.067L97.6133 1.63177H94.8347L89.4335 13.7883H92.3167L93.4 11.1834H99.031L100.114 13.7883ZM94.2881 9.04743L96.2155 4.41303L98.1426 9.04743H94.2881Z" fill="#D7B3B4"/>
<path d="M37.6304 20.2888H40.4613V32.4456H37.6304V20.2888ZM55.1705 27.6642L49.127 20.2888H46.7998V32.4456H49.5785V25.0703L55.622 32.4456H57.9493V20.2888H55.1705V27.6642ZM69.444 28.9715L65.7468 20.2888H62.6902L67.9524 32.4456H70.7312L75.9932 20.2888H73.1973L69.444 28.9715ZM83.5304 27.3745H89.1745V25.169H83.5304V22.5465H89.9211V20.2888H80.7341V32.4456H90.1471V30.1879H83.5304V27.3745ZM103.606 26.3063C103.189 26.0575 102.732 25.8521 102.234 25.6901C101.738 25.5284 101.233 25.3921 100.723 25.2817C100.258 25.1825 99.7944 25.0725 99.3339 24.952C98.917 24.842 98.5812 24.6886 98.3265 24.4917C98.0717 24.2949 97.9446 24.0345 97.9446 23.7101C97.9446 23.4556 98.0226 23.224 98.1789 23.0155C98.3353 22.8071 98.5812 22.642 98.9168 22.5207C99.2527 22.3989 99.6985 22.3381 100.254 22.3381C100.787 22.3381 101.342 22.4164 101.922 22.5726C102.5 22.7289 103.062 22.9634 103.606 23.2759L104.492 21.1572C103.936 20.8099 103.285 20.5437 102.538 20.3585C101.797 20.174 101.036 20.0807 100.272 20.0806C99.1255 20.0806 98.173 20.2514 97.4148 20.5928C96.6563 20.9345 96.0919 21.3917 95.7216 21.9647C95.3507 22.5378 95.1658 23.1717 95.1658 23.8664C95.1658 24.5035 95.2902 25.0332 95.5392 25.4554C95.7849 25.8751 96.1311 26.2272 96.5466 26.4801C96.9688 26.7406 97.4321 26.9491 97.9359 27.1054C98.4309 27.2594 98.9322 27.3926 99.4383 27.5048C99.9357 27.6149 100.396 27.7306 100.819 27.8521C101.241 27.9738 101.58 28.1298 101.835 28.3211C102.089 28.5122 102.217 28.7699 102.217 29.0938C102.217 29.3486 102.136 29.5715 101.974 29.7625C101.811 29.9536 101.559 30.1071 101.218 30.2227C100.877 30.3387 100.428 30.3964 99.8721 30.3964C99.1428 30.3964 98.4191 30.2779 97.7014 30.0403C96.9834 29.8032 96.3697 29.4993 95.8604 29.1286L94.9053 31.2472C95.4494 31.6641 96.17 32.0028 97.0677 32.2632C97.9646 32.5238 98.8997 32.654 99.8721 32.654C101.019 32.654 101.974 32.4804 102.738 32.1329C103.502 31.7855 104.072 31.3285 104.448 30.7611C104.824 30.1938 105.013 29.5687 105.013 28.8854C105.013 28.2602 104.883 27.7366 104.622 27.3139C104.361 26.8913 104.023 26.5552 103.606 26.3063ZM109.041 22.5813H112.932V32.4456H115.745V22.5813H119.635V20.2888H109.041V22.5813ZM131.499 27.8357L126.947 20.2888H124.619V32.4456H127.242V25.2755L130.819 31.1432H132.07L135.651 25.1946L135.682 32.4456H138.305V20.2888H135.96L131.499 27.8357ZM147.474 27.3745H153.118V25.169H147.474V22.5465H153.865V20.2888H144.678V32.4456H154.091V30.1879H147.474V27.3745ZM168.175 27.6644L162.131 20.2888H159.804V32.4456H162.583V25.0703L168.626 32.4456H170.953V20.2888H168.175V27.6644ZM175.938 22.5813H179.828V32.4456H182.641V22.5813H186.531V20.2888H175.938V22.5813ZM200.277 27.3139C200.017 26.8913 199.678 26.5554 199.261 26.3065C198.844 26.0575 198.387 25.8521 197.889 25.6901C197.393 25.5284 196.889 25.3921 196.378 25.2817C195.913 25.1825 195.45 25.0725 194.989 24.952C194.572 24.842 194.236 24.6886 193.982 24.4917C193.727 24.2949 193.6 24.0345 193.6 23.7101C193.6 23.4556 193.678 23.224 193.834 23.0155C193.99 22.8071 194.236 22.642 194.572 22.5207C194.908 22.3989 195.354 22.3381 195.909 22.3381C196.442 22.3381 196.998 22.4164 197.577 22.5726C198.156 22.7289 198.717 22.9634 199.261 23.2759L200.147 21.1572C199.591 20.8099 198.94 20.5437 198.193 20.3585C197.452 20.174 196.691 20.0807 195.927 20.0806C194.78 20.0806 193.828 20.2514 193.07 20.5928C192.311 20.9345 191.747 21.3917 191.377 21.9647C191.006 22.5378 190.821 23.1717 190.821 23.8664C190.821 24.5035 190.945 25.0332 191.194 25.4554C191.44 25.8751 191.786 26.2272 192.202 26.4801C192.624 26.7406 193.087 26.9491 193.591 27.1054C194.086 27.2594 194.587 27.3926 195.093 27.5048C195.591 27.6149 196.051 27.7306 196.474 27.8521C196.896 27.9738 197.235 28.1298 197.49 28.3211C197.744 28.5122 197.872 28.7699 197.872 29.0938C197.872 29.3486 197.791 29.5715 197.629 29.7625C197.467 29.9536 197.215 30.1071 196.873 30.2227C196.532 30.3387 196.083 30.3964 195.527 30.3964C194.798 30.3964 194.074 30.2779 193.357 30.0403C192.639 29.8032 192.025 29.4993 191.516 29.1286L190.56 31.2472C191.105 31.6641 191.825 32.0028 192.723 32.2632C193.62 32.5238 194.555 32.654 195.527 32.654C196.674 32.654 197.629 32.4804 198.393 32.1329C199.157 31.7855 199.727 31.3285 200.104 30.7611C200.479 30.1938 200.668 29.5687 200.668 28.8854C200.668 28.2602 200.538 27.7366 200.277 27.3139ZM22.6795 1.6356C20.3326 -0.23163 17.612 -0.518238 15.4019 0.869154C13.1288 2.29591 12.6724 4.5998 12.6724 7.85461V22.5887C7.61482 21.82 3.81551 17.4076 3.81551 12.2772C3.81551 9.02691 5.29115 6.01972 7.86396 4.02659L7.90162 3.99749L7.95297 1.85963L5.97087 1.51122L5.93588 1.53822C2.58807 4.13271 0.667969 8.04689 0.667969 12.2772C0.667969 15.6388 1.91101 18.867 4.16812 21.367C6.38832 23.8261 9.4054 25.3856 12.6722 25.7644V32.4348H15.8197V25.7644C19.0865 25.3854 22.1036 23.8261 24.3238 21.367C26.5809 18.867 27.8242 15.6388 27.8242 12.2772C27.8242 8.11307 25.9489 4.23427 22.6795 1.6356ZM15.8199 22.5889V7.8548C15.8199 4.88565 16.2612 4.04599 17.0751 3.53477C17.4926 3.27289 17.9395 3.14014 18.4038 3.14014C19.1415 3.14014 19.9245 3.46536 20.7307 4.10704C23.2382 6.10036 24.6764 9.07826 24.6764 12.2772C24.6764 17.4074 20.8771 21.82 15.8199 22.5889Z" fill="white"/>
</g>
<defs>
<clipPath id="clip0_544_667">
<rect width="200" height="32.654" fill="white" transform="translate(0.667969)"/>
</clipPath>
</defs>
</svg>
