<svg width="201" height="69" viewBox="0 0 201 69" fill="none" xmlns="http://www.w3.org/2000/svg">
<g clip-path="url(#clip0_544_647)">
<path d="M81.5809 2.87762C80.5258 2.40473 79.2694 2.16803 77.8118 2.16803H70.7617V18.4545H74.5543V13.9641H77.8118C79.2692 13.9641 80.5258 13.7238 81.5809 13.243C82.6355 12.7622 83.4498 12.0837 84.0238 11.2072C84.5974 10.3308 84.8845 9.28 84.8845 8.05446C84.8845 6.84471 84.5974 5.79752 84.0238 4.91365C83.4498 4.02953 82.6352 3.35102 81.5809 2.87788V2.87762ZM80.2081 10.1486C79.6185 10.6449 78.7499 10.8928 77.6021 10.8928H74.5545V5.23928H77.6021C78.7499 5.23928 79.6185 5.48362 80.2081 5.97205C80.7974 6.46074 81.0922 7.15505 81.0922 8.05446C81.0922 8.95438 80.7974 9.652 80.2081 10.1486ZM103.335 11.1723C103.335 12.7077 103.017 13.8209 102.381 14.5109C101.745 15.2013 100.853 15.5463 99.7052 15.5463C98.5726 15.5463 97.6885 15.2013 97.0528 14.5109C96.4166 13.8209 96.0989 12.7077 96.0989 11.1723V2.16803H92.3063V11.2653C92.3063 13.6695 92.9578 15.5152 94.2606 16.8027C95.5638 18.0904 97.3705 18.7338 99.682 18.7338C101.977 18.7338 103.776 18.0904 105.08 16.8024C106.383 15.5155 107.034 13.6695 107.034 11.2653V2.16803H103.335V11.1723ZM124.65 12.2786L118.551 2.16803H115.433V18.4545H118.946V8.84864L123.739 16.7097H125.414L130.212 8.74036L130.254 18.4545H133.767V2.16803H130.626L124.65 12.2786ZM154.474 18.4545H158.429L151.123 2.16828H147.401L140.165 18.4545H144.027L145.479 14.9646H153.022L154.474 18.4545ZM146.669 12.1028L149.251 5.89434L151.832 12.1026L146.669 12.1028Z" fill="#B9B4AC"/>
<path d="M75.0206 31.5368C75.4859 31.0715 76.0362 30.7113 76.6724 30.4549C77.3084 30.1991 78.0063 30.071 78.7663 30.071C79.5727 30.071 80.3213 30.234 81.0115 30.5597C81.7015 30.8855 82.3181 31.3663 82.8613 32.0023L85.3042 29.7688C84.5284 28.8228 83.5668 28.105 82.4192 27.6166C81.2711 27.1279 79.9916 26.8838 78.5803 26.8838C77.3239 26.8838 76.1565 27.0894 75.0787 27.5004C74.0004 27.9114 73.062 28.4971 72.2633 29.2569C71.4645 30.0172 70.8441 30.909 70.402 31.9325C69.96 32.9562 69.7391 34.0811 69.7391 35.3062C69.7391 36.5317 69.96 37.6561 70.402 38.6796C70.8443 39.7033 71.4607 40.5956 72.2518 41.3554C73.0429 42.1154 73.977 42.7012 75.0553 43.1119C76.133 43.5227 77.3005 43.7285 78.5571 43.7285C79.9839 43.7285 81.2711 43.4801 82.4192 42.984C83.5668 42.4879 84.5284 41.7666 85.3042 40.8203L82.8613 38.5866C82.3181 39.2228 81.7015 39.7074 81.0115 40.0407C80.321 40.3745 79.5727 40.5411 78.7663 40.5411C78.0063 40.5411 77.3084 40.4129 76.6724 40.1571C76.0362 39.9011 75.4859 39.5405 75.0206 39.0753C74.5554 38.61 74.1946 38.0594 73.9388 37.4235C73.6827 36.7875 73.5548 36.0817 73.5548 35.3062C73.5548 34.5306 73.6827 33.8251 73.9388 33.1889C74.1946 32.5531 74.5554 32.0023 75.0206 31.5368ZM97.5653 27.1631L90.3295 43.4493H94.1916L95.6431 39.9594H103.187L104.638 43.4493H108.594L101.288 27.1631H97.5655H97.5653ZM96.833 37.0979L99.415 30.8891L101.997 37.0979H96.833ZM125.415 27.8726C124.36 27.3995 123.104 27.1628 121.646 27.1628H114.596V43.4493H118.389V38.9588H121.646C123.104 38.9588 124.36 38.7186 125.415 38.2378C126.469 37.757 127.284 37.0785 127.858 36.202C128.432 35.3255 128.719 34.2748 128.719 33.0492C128.719 31.8395 128.432 30.7925 127.858 29.9084C127.284 29.0243 126.469 28.3458 125.415 27.8726ZM124.042 35.1434C123.452 35.6399 122.584 35.8879 121.436 35.8879H118.389V30.234H121.436C122.584 30.234 123.452 30.4786 124.042 30.9668C124.631 31.4555 124.926 32.1501 124.926 33.0492C124.926 33.9489 124.631 34.647 124.042 35.1434ZM136.28 27.1628H140.073V43.4493H136.28V27.1628ZM146.238 30.234H151.45V43.4493H155.219V30.234H160.43V27.1628H146.238V30.234ZM170.574 27.1631L163.338 43.4493H167.201L168.652 39.9594H176.196L177.647 43.4493H181.603L174.297 27.1631H170.575H170.574ZM169.842 37.0979L172.424 30.8891L175.006 37.0979H169.842ZM192.212 40.3783V27.1628H188.42V43.4493H200.332V40.3783H192.212ZM46.7712 3.4507C41.8199 -0.48887 36.0802 -1.09349 31.4175 1.83304C26.6213 4.84339 25.6582 9.70429 25.6582 16.5714V47.6574C14.9884 46.0349 6.9729 36.7256 6.9729 25.9016C6.9729 19.0447 10.0862 12.7001 15.5142 8.49505L15.5937 8.43339L15.7023 3.92309L11.5204 3.18801L11.4465 3.24534C4.3832 8.71876 0.332031 16.9765 0.332031 25.9016C0.332031 32.9942 2.95459 39.805 7.71663 45.0794C12.401 50.2675 18.7661 53.5573 25.6582 54.3569V68.4297H32.2991V54.3569C39.1912 53.5571 45.5566 50.2672 50.2407 45.0792C55.0027 39.805 57.6253 32.9939 57.6253 25.9013C57.6253 17.1161 53.6692 8.93354 46.7712 3.4507ZM32.2991 47.6574V16.5714C32.2991 10.3076 33.2301 8.53582 34.9479 7.45754C35.8279 6.90465 36.7709 6.62463 37.7506 6.62463C39.3069 6.62463 40.9587 7.31104 42.6599 8.665C47.9499 12.8703 50.9844 19.1524 50.9844 25.9016C50.9844 36.7256 42.9687 46.0351 32.2991 47.6574ZM75.0323 56.5318C75.5052 56.0665 76.0675 55.706 76.719 55.4499C77.3705 55.1941 78.0837 55.0659 78.8595 55.0659C79.6973 55.0659 80.4647 55.2173 81.1628 55.5197C81.861 55.8222 82.5122 56.2917 83.1174 56.9274L85.5137 54.6937C84.7228 53.779 83.749 53.0809 82.5938 52.5998C81.4383 52.1193 80.1394 51.8788 78.6967 51.8788C77.3937 51.8788 76.1993 52.0844 75.1136 52.4954C74.0279 52.9063 73.0814 53.4918 72.2752 54.2519C71.4734 55.0052 70.8358 55.916 70.4023 56.9272C69.9602 57.9509 69.7393 59.0758 69.7393 60.3011C69.7393 61.5267 69.9602 62.6511 70.4023 63.6746C70.8443 64.6983 71.4609 65.5906 72.2521 66.3501C73.0429 67.1104 73.9813 67.6959 75.0672 68.1069C76.1526 68.5176 77.3392 68.7235 78.6269 68.7235C79.7903 68.7235 80.9534 68.549 82.1168 68.1999C83.2802 67.8508 84.3116 67.3354 85.2112 66.6528V60.0642L85.2122 60.0545H85.2112V60.0448H81.7682V60.0545H79.121V62.9053H81.7682V64.8305C81.5185 64.9625 81.2666 65.0739 81.012 65.1633C80.3134 65.4104 79.5777 65.5364 78.8366 65.5358C78.0608 65.5358 77.3512 65.4041 76.7076 65.1401C76.0637 64.8767 75.5055 64.5118 75.0326 64.0466C74.5592 63.5813 74.1948 63.0269 73.939 62.3828C73.683 61.7394 73.5551 61.0451 73.5551 60.3009C73.5551 59.5253 73.683 58.8195 73.939 58.1836C74.1948 57.5476 74.5592 56.9968 75.0326 56.5315L75.0323 56.5318ZM104.196 63.1976C105.251 62.7402 106.065 62.0732 106.639 61.197C107.213 60.3205 107.5 59.2697 107.5 58.0442C107.5 56.8342 107.213 55.7873 106.639 54.9031C106.065 54.019 105.251 53.3408 104.196 52.8674C103.142 52.3945 101.885 52.1578 100.427 52.1578H93.3778V68.444H97.1701V63.884H100.427C100.483 63.884 100.537 63.8815 100.592 63.8809L103.754 68.4442H107.803L104.174 63.2068C104.181 63.2035 104.189 63.2009 104.196 63.1976ZM102.824 55.9615C103.413 56.4505 103.708 57.1448 103.708 58.0442C103.708 58.9436 103.413 59.642 102.824 60.1381C102.234 60.6349 101.366 60.8826 100.218 60.8826H97.1703V55.2288H100.218C101.366 55.2288 102.234 55.4734 102.824 55.9618L102.824 55.9615ZM129.417 54.2519C128.61 53.4918 127.668 52.9063 126.59 52.4951C125.512 52.0844 124.329 51.8785 123.042 51.8785C121.754 51.8785 120.572 52.088 119.494 52.5068C118.416 52.9257 117.473 53.5153 116.667 54.2751C115.867 55.0257 115.23 55.9324 114.794 56.9392C114.352 57.955 114.131 59.0758 114.131 60.3011C114.131 61.5109 114.352 62.6274 114.794 63.6516C115.227 64.6629 115.865 65.5737 116.667 66.3269C117.473 67.0872 118.42 67.6763 119.505 68.0952C120.591 68.5141 121.778 68.7235 123.065 68.7235C124.337 68.7235 125.512 68.5176 126.59 68.1069C127.668 67.6959 128.61 67.1104 129.417 66.3501C130.223 65.5906 130.848 64.6947 131.29 63.6628C131.732 62.6314 131.953 61.5109 131.953 60.3011C131.953 59.0758 131.732 57.9509 131.29 56.9274C130.856 55.9162 130.219 55.0053 129.417 54.2519ZM127.753 62.4067C127.505 63.0233 127.137 63.5846 126.672 64.0585C126.211 64.5281 125.661 64.9 125.054 65.1521C124.442 65.4079 123.771 65.5361 123.042 65.5361C122.313 65.5361 121.638 65.4079 121.018 65.1521C120.397 64.896 119.858 64.5317 119.401 64.0585C118.943 63.5856 118.586 63.0348 118.331 62.4067C118.075 61.7784 117.947 61.0767 117.947 60.3011C117.947 59.5255 118.075 58.8236 118.331 58.1953C118.586 57.567 118.943 57.0166 119.401 56.5435C119.858 56.0706 120.409 55.6982 121.018 55.4499C121.638 55.1941 122.313 55.0659 123.042 55.0659C123.771 55.0659 124.442 55.1941 125.054 55.4499C125.661 55.7021 126.211 56.074 126.672 56.5435C127.137 57.0174 127.505 57.5788 127.753 58.1953C128.009 58.8236 128.137 59.5255 128.137 60.3011C128.137 61.0767 128.009 61.7784 127.753 62.4067ZM150.356 61.1618C150.356 62.6974 150.038 63.8104 149.403 64.5006C148.766 65.1911 147.875 65.5361 146.727 65.5361C145.594 65.5361 144.71 65.1908 144.074 64.5006C143.439 63.8104 143.121 62.6974 143.121 61.1618V52.1578H139.328V61.2548C139.328 63.6595 139.979 65.5047 141.282 66.7924C142.585 68.0799 144.392 68.7235 146.704 68.7235C148.999 68.7235 150.798 68.0799 152.101 66.7922C153.404 65.505 154.056 63.6595 154.056 61.2548V52.158H150.356V61.1621L150.356 61.1618ZM175.74 54.9031C175.166 54.019 174.351 53.3408 173.297 52.8674C172.242 52.3945 170.986 52.1578 169.528 52.1578H162.478V68.444H166.271V63.9538H169.528C170.986 63.9538 172.242 63.7135 173.297 63.2325C174.352 62.752 175.166 62.0732 175.74 61.1967C176.314 60.3205 176.601 59.2697 176.601 58.0442C176.601 56.8344 176.314 55.7873 175.74 54.9031ZM171.924 60.1381C171.335 60.6349 170.466 60.8826 169.318 60.8826H166.271V55.2288H169.318C170.466 55.2288 171.335 55.4734 171.924 55.9618C172.513 56.4505 172.808 57.1448 172.808 58.0442C172.808 58.9436 172.513 59.642 171.924 60.1381Z" fill="white"/>
</g>
<defs>
<clipPath id="clip0_544_647">
<rect width="200" height="68.7237" fill="white" transform="translate(0.332031)"/>
</clipPath>
</defs>
</svg>
