<svg width="198" height="33" viewBox="0 0 198 33" fill="none" xmlns="http://www.w3.org/2000/svg">
<path d="M10.5301 19.712C6.81357 18.5387 4.12944 17.0867 2.47766 15.356C0.825887 13.596 0 11.4547 0 8.932C0 6.17467 0.958619 4.004 2.87586 2.42C4.82259 0.806666 7.59521 0 11.1937 0C13.9074 0 16.3703 0.307999 18.5825 0.923999C19.2904 1.12933 19.8508 1.55467 20.2637 2.2C20.7062 2.816 20.9274 3.50533 20.9274 4.268V5.544C20.9274 6.13067 20.6767 6.58533 20.1752 6.908C19.6738 7.23067 19.1429 7.28933 18.5825 7.084C16.0753 6.204 13.7599 5.764 11.6362 5.764C8.92253 5.764 7.56572 6.82 7.56572 8.932C7.56572 10.7213 8.74556 11.9973 11.1052 12.76C15.1757 13.992 17.9925 15.4293 19.5558 17.072C21.1486 18.7147 21.945 20.8707 21.945 23.54C21.945 29.8467 17.9483 33 9.95489 33C7.41824 33 5.11755 32.604 3.05283 31.812C2.34493 31.548 1.78451 31.0933 1.37156 30.448C0.988115 29.7733 0.796391 29.04 0.796391 28.248V26.84C0.796391 26.312 1.03236 25.916 1.50429 25.652C1.97623 25.3587 2.44817 25.3293 2.9201 25.564C5.07331 26.62 7.27076 27.148 9.51245 27.148C11.0757 27.148 12.2556 26.8547 13.052 26.268C13.8779 25.652 14.2908 24.7867 14.2908 23.672C14.2908 22.704 14.0106 21.912 13.4502 21.296C12.8897 20.68 11.9164 20.152 10.5301 19.712Z" fill="#00ACA7"/>
<path d="M28.1004 6.644C27.422 6.644 26.8321 6.39467 26.3307 5.896C25.8293 5.39733 25.5785 4.81067 25.5785 4.136V2.948C25.5785 2.27333 25.8293 1.68667 26.3307 1.188C26.8321 0.689332 27.422 0.44 28.1004 0.44H47.8332C48.5117 0.44 49.1016 0.689332 49.603 1.188C50.1044 1.68667 50.3552 2.27333 50.3552 2.948V4.136C50.3552 4.81067 50.1044 5.39733 49.603 5.896C49.1016 6.39467 48.5117 6.644 47.8332 6.644H42.17C41.9341 6.644 41.8161 6.76133 41.8161 6.996V30.052C41.8161 30.7267 41.5654 31.3133 41.0639 31.812C40.5625 32.3107 39.9726 32.56 39.2942 32.56H36.6395C35.9611 32.56 35.3712 32.3107 34.8698 31.812C34.3683 31.3133 34.1176 30.7267 34.1176 30.052V6.996C34.1176 6.76133 33.9996 6.644 33.7637 6.644H28.1004Z" fill="#00ACA7"/>
<path d="M74.7809 16.5C74.7809 9.60667 72.3033 6.16 67.3479 6.16C62.3926 6.16 59.915 9.60667 59.915 16.5C59.915 23.3933 62.3926 26.84 67.3479 26.84C72.3033 26.84 74.7809 23.3933 74.7809 16.5ZM78.4089 28.644C75.6953 31.548 72.0083 33 67.3479 33C62.6876 33 59.0006 31.548 56.287 28.644C53.5733 25.7107 52.2165 21.6627 52.2165 16.5C52.2165 11.3373 53.5733 7.304 56.287 4.4C59.0006 1.46667 62.6876 0 67.3479 0C72.0083 0 75.6953 1.46667 78.4089 4.4C81.1226 7.304 82.4794 11.3373 82.4794 16.5C82.4794 21.6627 81.1226 25.7107 78.4089 28.644Z" fill="#00ACA7"/>
<path d="M89.7395 32.56C89.0611 32.56 88.4712 32.3107 87.9698 31.812C87.4683 31.3133 87.2176 30.7267 87.2176 30.052V2.948C87.2176 2.27333 87.4683 1.68667 87.9698 1.188C88.4712 0.689332 89.0611 0.44 89.7395 0.44H92.2614C92.9398 0.44 93.515 0.689332 93.9869 1.188C94.4884 1.68667 94.7391 2.27333 94.7391 2.948V14.168C94.7391 14.1973 94.7538 14.212 94.7833 14.212C94.8423 14.212 94.8718 14.1973 94.8718 14.168L102.393 2.552C103.278 1.144 104.561 0.44 106.243 0.44H109.959C110.49 0.44 110.873 0.674666 111.109 1.144C111.345 1.61333 111.316 2.068 111.021 2.508L102.039 15.532C101.892 15.7373 101.892 15.9427 102.039 16.148L111.508 30.492C111.803 30.932 111.817 31.3867 111.552 31.856C111.316 32.3253 110.932 32.56 110.401 32.56H106.685C105.004 32.56 103.735 31.856 102.88 30.448L94.8718 17.512C94.8718 17.4827 94.8423 17.468 94.7833 17.468C94.7538 17.468 94.7391 17.4827 94.7391 17.512V30.052C94.7391 30.7267 94.4884 31.3133 93.9869 31.812C93.515 32.3107 92.9398 32.56 92.2614 32.56H89.7395Z" fill="#00ACA7"/>
<path d="M118.775 32.56C118.096 32.56 117.506 32.3107 117.005 31.812C116.503 31.3133 116.253 30.7267 116.253 30.052V2.948C116.253 2.27333 116.503 1.68667 117.005 1.188C117.506 0.689332 118.096 0.44 118.775 0.44H121.297C121.975 0.44 122.55 0.689332 123.022 1.188C123.523 1.68667 123.774 2.27333 123.774 2.948V14.168C123.774 14.1973 123.789 14.212 123.818 14.212C123.877 14.212 123.907 14.1973 123.907 14.168L131.428 2.552C132.313 1.144 133.596 0.44 135.278 0.44H138.994C139.525 0.44 139.908 0.674666 140.144 1.144C140.38 1.61333 140.351 2.068 140.056 2.508L131.074 15.532C130.927 15.7373 130.927 15.9427 131.074 16.148L140.543 30.492C140.838 30.932 140.852 31.3867 140.587 31.856C140.351 32.3253 139.967 32.56 139.437 32.56H135.72C134.039 32.56 132.77 31.856 131.915 30.448L123.907 17.512C123.907 17.4827 123.877 17.468 123.818 17.468C123.789 17.468 123.774 17.4827 123.774 17.512V30.052C123.774 30.7267 123.523 31.3133 123.022 31.812C122.55 32.3107 121.975 32.56 121.297 32.56H118.775Z" fill="#00ACA7"/>
<path d="M147.765 32.56C147.087 32.56 146.497 32.3107 145.996 31.812C145.524 31.3133 145.288 30.7267 145.288 30.052V2.948C145.288 2.27333 145.524 1.68667 145.996 1.188C146.497 0.689332 147.087 0.44 147.765 0.44H163.428C164.106 0.44 164.681 0.689332 165.153 1.188C165.655 1.68667 165.906 2.27333 165.906 2.948V3.96C165.906 4.63467 165.655 5.22133 165.153 5.72C164.681 6.21867 164.106 6.468 163.428 6.468H153.163C152.927 6.468 152.809 6.58533 152.809 6.82V12.628C152.809 12.892 152.927 13.024 153.163 13.024H162.543C163.221 13.024 163.797 13.2733 164.268 13.772C164.77 14.2707 165.021 14.8573 165.021 15.532V16.192C165.021 16.8667 164.77 17.4533 164.268 17.952C163.797 18.4507 163.221 18.7 162.543 18.7H153.163C152.927 18.7 152.809 18.8173 152.809 19.052V26.18C152.809 26.4147 152.927 26.532 153.163 26.532H163.428C164.106 26.532 164.681 26.7813 165.153 27.28C165.655 27.7787 165.906 28.3653 165.906 29.04V30.052C165.906 30.7267 165.655 31.3133 165.153 31.812C164.681 32.3107 164.106 32.56 163.428 32.56H147.765Z" fill="#00ACA7"/>
<path d="M179.55 6.512V26.488C179.55 26.752 179.683 26.9133 179.948 26.972C180.538 27.0893 181.246 27.148 182.072 27.148C185.051 27.148 187.249 26.2827 188.665 24.552C190.11 22.8213 190.832 19.9907 190.832 16.06C190.832 12.54 190.11 9.95867 188.665 8.316C187.219 6.67333 185.022 5.852 182.072 5.852C181.246 5.852 180.538 5.91066 179.948 6.028C179.683 6.08667 179.55 6.248 179.55 6.512ZM174.683 32.648C173.976 32.5893 173.386 32.296 172.914 31.768C172.442 31.2107 172.206 30.5653 172.206 29.832V3.168C172.206 2.43467 172.442 1.804 172.914 1.276C173.386 0.718666 173.976 0.410666 174.683 0.351998C176.984 0.117333 179.255 0 181.497 0C186.777 0 190.847 1.39333 193.708 4.18C196.569 6.96667 198 10.9267 198 16.06C198 21.6333 196.569 25.8573 193.708 28.732C190.847 31.5773 186.777 33 181.497 33C179.255 33 176.984 32.8827 174.683 32.648Z" fill="#00ACA7"/>
</svg>
